<?xml version="1.0" standalone="no"?>
<!DOCTYPE svg PUBLIC "-//W3C//DTD SVG 20010904//EN"
 "http://www.w3.org/TR/2001/REC-SVG-20010904/DTD/svg10.dtd">
<svg version="1.0" xmlns="http://www.w3.org/2000/svg"
 width="192.000000pt" height="192.000000pt" viewBox="0 0 192.000000 192.000000"
 preserveAspectRatio="xMidYMid meet">

<g transform="translate(0.000000,192.000000) scale(0.100000,-0.100000)"
fill="#000000" stroke="none">
<path d="M810 1624 c-139 -29 -303 -134 -387 -247 -191 -258 -191 -576 0 -834
118 -159 331 -263 537 -263 206 0 419 104 537 263 160 216 188 482 74 712 -75
151 -175 249 -326 321 -127 61 -291 79 -435 48z m32 -479 c10 -33 44 -147 77
-252 l58 -193 -72 0 -73 0 -6 38 c-14 75 -11 72 -90 72 l-73 0 -12 -55 -12
-55 -69 0 -69 0 9 28 c5 15 39 126 76 247 36 121 68 224 71 228 3 4 41 6 86 5
l81 -3 18 -60z m518 10 l0 -55 -100 0 -100 0 0 -40 0 -40 85 0 85 0 0 -55 0
-54 -82 -3 -83 -3 0 -45 0 -45 103 -3 102 -3 0 -54 0 -55 -170 0 -170 0 0 255
0 255 165 0 165 0 0 -55z"/>
<path d="M716 1032 c-9 -43 -19 -88 -23 -100 -5 -20 -2 -22 41 -22 33 0 46 4
46 14 0 18 -38 177 -43 182 -2 3 -12 -31 -21 -74z"/>
</g>
</svg>
