<?xml version="1.0" standalone="no"?>
<!DOCTYPE svg PUBLIC "-//W3C//DTD SVG 20010904//EN"
 "http://www.w3.org/TR/2001/REC-SVG-20010904/DTD/svg10.dtd">
<svg version="1.0" xmlns="http://www.w3.org/2000/svg"
 width="1024.000000pt" height="1024.000000pt" viewBox="0 0 1024.000000 1024.000000"
 preserveAspectRatio="xMidYMid meet">
<metadata>
Created by potrace 1.11, written by Peter Selinger 2001-2013
</metadata>
<g transform="translate(0.000000,1024.000000) scale(0.100000,-0.100000)"
fill="#000000" stroke="none">
<path d="M2605 8022 l-41 -3 -138 -337 c-75 -185 -144 -350 -152 -367 -7 -16
-46 -109 -85 -205 -39 -96 -77 -188 -84 -205 -8 -16 -35 -82 -60 -145 -26 -63
-53 -128 -60 -145 -18 -41 -257 -624 -312 -760 -24 -60 -50 -123 -58 -140 -7
-16 -25 -59 -39 -95 -15 -36 -31 -74 -36 -85 -5 -11 -25 -58 -44 -105 -51
-128 -106 -263 -116 -285 -5 -11 -59 -141 -120 -290 -61 -148 -119 -290 -130
-315 -11 -25 -42 -101 -70 -170 -28 -69 -59 -145 -70 -170 -11 -25 -69 -166
-130 -315 -61 -148 -115 -279 -120 -290 -5 -11 -25 -60 -45 -110 -20 -49 -40
-99 -45 -110 -5 -11 -32 -76 -60 -145 -28 -69 -56 -136 -62 -150 -6 -14 -14
-34 -19 -45 -4 -11 -26 -64 -49 -117 -22 -53 -40 -99 -40 -102 0 -4 237 -6
528 -6 l527 0 33 88 c18 48 37 96 42 107 9 19 71 174 285 715 53 135 103 257
110 272 7 15 16 41 20 57 l6 29 1162 -2 1161 -1 102 -240 c57 -132 109 -256
118 -275 8 -19 63 -147 121 -285 59 -137 115 -268 124 -290 10 -22 31 -70 46
-107 l28 -68 534 0 c505 0 533 1 525 18 -14 25 -37 78 -202 452 -61 140 -118
269 -125 285 -8 17 -77 174 -155 350 -78 176 -149 338 -159 360 -10 22 -33 74
-51 115 -18 41 -43 98 -55 125 -13 28 -64 145 -115 260 -50 116 -107 243 -126
283 -19 41 -34 76 -34 78 0 2 -45 104 -99 227 -54 122 -134 301 -176 397 -43
96 -85 193 -95 215 -10 22 -52 119 -95 215 -42 96 -86 195 -97 220 -11 25 -44
99 -73 165 -29 66 -63 143 -75 170 -12 28 -28 64 -35 80 -7 17 -93 210 -190
430 -97 220 -213 482 -257 583 l-81 182 -36 0 c-201 3 -925 4 -956 2z m575
-1342 c50 -118 97 -228 105 -245 12 -28 48 -113 322 -755 57 -135 110 -258
118 -275 31 -71 235 -552 235 -557 0 -2 -376 -4 -836 -4 l-835 0 6 23 c3 13
34 97 69 186 35 89 159 405 274 702 405 1042 445 1145 448 1143 1 -2 43 -100
94 -218z"/>
<path d="M7948 6366 c-1 -2 -57 -6 -122 -10 -433 -22 -807 -181 -1092 -464
-348 -345 -517 -781 -517 -1332 0 -112 9 -263 18 -311 3 -13 7 -41 10 -64 9
-59 61 -265 81 -316 9 -24 32 -77 50 -117 19 -41 34 -76 34 -78 0 -2 20 -37
44 -78 130 -220 322 -418 544 -561 92 -59 246 -136 332 -165 36 -12 74 -26 85
-31 44 -20 248 -62 375 -78 132 -17 472 -21 581 -7 24 3 71 8 104 11 33 4 67
8 75 10 8 3 31 7 50 10 32 5 53 9 105 19 282 58 551 167 788 320 l77 49 0 343
0 343 -79 -54 c-328 -223 -650 -354 -962 -392 -122 -14 -489 -7 -518 11 -3 2
-26 7 -51 11 -24 4 -51 10 -60 15 -8 4 -19 8 -25 9 -23 2 -114 36 -166 61
-199 96 -372 279 -457 482 -37 89 -78 234 -87 313 l-7 55 1233 2 1233 3 -1
110 c-1 114 -12 322 -18 354 -2 10 -6 42 -10 72 -29 229 -111 483 -222 684
-136 245 -397 492 -643 607 -134 63 -322 120 -440 134 -30 3 -57 8 -60 10 -4
1 -62 6 -130 9 -69 4 -130 8 -137 10 -6 2 -13 2 -15 1z m232 -651 c205 -40
386 -191 480 -399 55 -120 114 -371 92 -385 -6 -3 -363 -6 -794 -6 -680 1
-783 3 -783 15 1 13 8 52 30 160 2 8 11 38 20 65 85 250 212 404 408 495 153
72 358 92 547 55z"/>
</g>
</svg>
